<svg xmlns="http://www.w3.org/2000/svg" width="32" height="32" viewBox="0 0 32 32">
  <defs>
    <linearGradient id="gradient" x1="0%" y1="0%" x2="100%" y2="100%">
      <stop offset="0%" stop-color="#0062E0" />
      <stop offset="100%" stop-color="#19AFFF" />
    </linearGradient>
  </defs>
  <circle cx="16" cy="16" r="15" fill="url(#gradient)" stroke="#ffffff" stroke-width="1" />
  <g transform="translate(8, 8)">
    <!-- Wallet icon -->
    <path d="M13.5,4H13V3a2,2,0,0,0-2-2H2A2,2,0,0,0,0,3V13a2,2,0,0,0,2,2H13a2,2,0,0,0,2-2V6A2,2,0,0,0,13.5,4ZM2,3H11V4H2ZM13,13H2V6H13Z" fill="white"/>
    <!-- Soccer ball patterns -->
    <circle cx="10" cy="9" r="2" fill="white" opacity="0.8" />
    <path d="M10,9 L8,7 M10,9 L12,8 M10,9 L9,11" stroke="white" stroke-width="0.7" stroke-linecap="round" />
  </g>
</svg> 